<svg width="30" height="30" viewBox="0 0 30 30" fill="none" xmlns="http://www.w3.org/2000/svg">
<path d="M0 11.25H30V17.8125H0V11.25Z" fill="white"/>
<path d="M25.3125 4.21875H4.6875C1.58109 4.21875 0 6.52734 0 9.375V11.25H30V9.375C30 6.52734 28.4189 4.21875 25.3125 4.21875Z" fill="#FF9933"/>
<path d="M0 19.6875C0 22.5352 1.58109 24.8438 4.6875 24.8438H25.3125C28.4189 24.8438 30 22.5352 30 19.6875V17.8125H0V19.6875Z" fill="#128807"/>
<path fill-rule="evenodd" clip-rule="evenodd" d="M15.1454 11.5234C15.7443 11.5234 16.3297 11.7011 16.8277 12.0339C17.3256 12.3668 17.7136 12.8398 17.9426 13.3933C18.1715 13.9467 18.2312 14.5556 18.114 15.1429C17.9968 15.7303 17.7081 16.2697 17.2842 16.6928C16.8604 17.116 16.3206 17.4039 15.7331 17.5202C15.1455 17.6365 14.5367 17.5759 13.9836 17.346C13.4306 17.1162 12.9581 16.7275 12.6261 16.229C12.294 15.7306 12.1172 15.1449 12.1182 14.5459C12.1195 13.7439 12.4391 12.9752 13.0066 12.4086C13.5741 11.8419 14.3433 11.5236 15.1454 11.5234ZM13.1274 12.8336C13.1794 12.8927 13.1888 12.9559 13.1541 13.0089C13.1394 13.0333 13.1167 13.0518 13.0899 13.0614C13.0693 13.0691 13.0471 13.0716 13.0253 13.0688C13.0036 13.0661 12.9828 13.058 12.9647 13.0455C12.8833 13.1621 12.8116 13.2854 12.7505 13.4139C12.8213 13.4603 12.8447 13.5184 12.8213 13.5827C12.8088 13.6153 12.784 13.6419 12.7522 13.6566C12.7204 13.6713 12.6842 13.673 12.6511 13.6614C12.6174 13.7289 12.5429 14.0139 12.5419 14.0739C12.573 14.0798 12.6009 14.0966 12.6207 14.1212C12.6416 14.1457 12.6523 14.1772 12.6507 14.2094C12.6418 14.2975 12.5874 14.335 12.5044 14.3383C12.4913 14.4231 12.4927 14.7072 12.5058 14.763C12.5939 14.7723 12.6404 14.8108 12.6479 14.8778C12.6582 14.95 12.6235 14.9969 12.5391 15.0297C12.5644 15.1689 12.6005 15.3058 12.6479 15.4398C12.6809 15.4299 12.7163 15.431 12.7486 15.4431C12.78 15.4567 12.8049 15.4802 12.818 15.5125C12.8297 15.5378 12.8321 15.5641 12.826 15.5917C12.8216 15.6123 12.8125 15.6315 12.7994 15.648C12.7863 15.6644 12.7696 15.6776 12.7505 15.6864C12.8133 15.8167 12.8827 15.9395 12.9647 16.0548C13.0379 16.0187 13.1016 16.0272 13.1447 16.0787C13.1637 16.0999 13.1745 16.1272 13.1752 16.1556C13.1767 16.1766 13.173 16.1977 13.1645 16.217C13.156 16.2362 13.1429 16.2531 13.1264 16.2663C13.2202 16.3759 13.32 16.4763 13.4288 16.5686C13.4902 16.5147 13.5539 16.5062 13.6088 16.5447C13.6336 16.562 13.651 16.585 13.6589 16.6131C13.6647 16.633 13.6659 16.654 13.6625 16.6744C13.659 16.6948 13.6511 16.7143 13.6393 16.7313C13.7579 16.8128 13.8802 16.8831 14.0082 16.9441C14.0579 16.8742 14.1146 16.8508 14.176 16.8742C14.2027 16.8838 14.2259 16.9013 14.2425 16.9244C14.266 16.9619 14.2693 17.0031 14.2557 17.0472C14.3907 17.095 14.5266 17.1316 14.6672 17.1564C14.6949 17.0772 14.7427 17.0402 14.8064 17.0448C14.836 17.0472 14.8627 17.0561 14.8861 17.0763C14.9189 17.1063 14.9344 17.1442 14.9316 17.1911C15.076 17.2014 15.2171 17.2023 15.3572 17.1911C15.3675 17.1006 15.4036 17.0552 15.4763 17.0448C15.5039 17.041 15.532 17.0466 15.556 17.0608C15.5735 17.0707 15.5886 17.0845 15.6002 17.101C15.6117 17.1176 15.6193 17.1365 15.6225 17.1564C15.7641 17.1302 15.9014 17.0941 16.0341 17.0467C16.0224 16.9581 16.0439 16.9052 16.1035 16.8775C16.1252 16.8682 16.1489 16.8645 16.1724 16.8667C16.1968 16.8686 16.2188 16.8761 16.2366 16.892C16.2539 16.9066 16.2685 16.9244 16.2854 16.9427C16.4131 16.8824 16.5357 16.8116 16.6519 16.7313C16.6041 16.6563 16.6322 16.5845 16.6711 16.5527C16.6847 16.541 16.7005 16.5322 16.7175 16.5267C16.7345 16.5213 16.7524 16.5192 16.7702 16.5207C16.788 16.5223 16.8053 16.5273 16.8212 16.5356C16.837 16.5439 16.851 16.5553 16.8624 16.5691C16.9707 16.4763 17.0724 16.3755 17.1633 16.2672C17.1104 16.2067 17.1 16.143 17.1389 16.0881C17.1547 16.0635 17.1789 16.0455 17.2069 16.0375C17.2269 16.0312 17.2481 16.0295 17.2688 16.0327C17.2896 16.0358 17.3093 16.0437 17.3264 16.0558C17.4085 15.9377 17.4797 15.8153 17.5407 15.6869C17.4722 15.6409 17.4474 15.587 17.468 15.5256C17.4755 15.4983 17.492 15.4744 17.5149 15.4577C17.5331 15.4449 17.554 15.4366 17.576 15.4334C17.5979 15.4301 17.6203 15.432 17.6414 15.4389C17.6719 15.3728 17.7479 15.0944 17.7521 15.0269C17.7196 15.021 17.6904 15.0037 17.6696 14.9781C17.6587 14.9655 17.6505 14.9507 17.6456 14.9347C17.6406 14.9187 17.6391 14.9019 17.641 14.8853C17.6428 14.8556 17.6551 14.8275 17.6757 14.8061C17.6898 14.7912 17.707 14.7797 17.7262 14.7724C17.7453 14.7651 17.7659 14.7622 17.7863 14.7639C17.798 14.6221 17.798 14.4796 17.7863 14.3378C17.6968 14.3289 17.6541 14.2942 17.6424 14.2234C17.6371 14.1967 17.6411 14.1689 17.6536 14.1447C17.6633 14.126 17.6772 14.1097 17.6942 14.0973C17.7112 14.0848 17.7308 14.0765 17.7516 14.073C17.727 13.9329 17.6904 13.7952 17.6424 13.6614C17.5557 13.6759 17.5022 13.6525 17.4736 13.5925C17.4662 13.5765 17.4621 13.5591 17.4614 13.5414C17.4608 13.5238 17.4637 13.5062 17.4699 13.4896C17.4762 13.4731 17.4856 13.458 17.4978 13.4451C17.5099 13.4323 17.5245 13.422 17.5407 13.4148C17.4799 13.286 17.4083 13.1626 17.3264 13.0459C17.251 13.082 17.1896 13.0736 17.1464 13.022C17.1273 13.0002 17.1166 12.9723 17.1164 12.9433C17.1156 12.9227 17.1195 12.9022 17.128 12.8834C17.1364 12.8646 17.1492 12.848 17.1652 12.835C17.0726 12.7266 16.9719 12.6256 16.8638 12.5327C16.7991 12.588 16.7363 12.595 16.6829 12.5566C16.6586 12.5404 16.6408 12.5161 16.6327 12.4881C16.6269 12.4685 16.6256 12.4477 16.629 12.4275C16.6324 12.4073 16.6404 12.3881 16.6524 12.3714C16.5355 12.2899 16.4121 12.2183 16.2835 12.1572C16.2352 12.2266 16.1808 12.2495 16.1194 12.2289C16.0922 12.2202 16.0684 12.2031 16.0514 12.1802C16.0391 12.1619 16.0312 12.1409 16.0284 12.119C16.0257 12.0971 16.0281 12.0749 16.0355 12.0541C15.9018 12.0057 15.7641 11.9692 15.6239 11.9448C15.5972 12.0208 15.5489 12.0602 15.4866 12.0564C15.4575 12.0555 15.4294 12.0449 15.4069 12.0264C15.3902 12.0123 15.3772 11.9944 15.3689 11.9741C15.3607 11.9539 15.3575 11.9319 15.3596 11.9102C15.2179 11.8981 15.0755 11.8983 14.9339 11.9106C14.9241 11.995 14.8875 12.0433 14.8252 12.0536C14.7972 12.0596 14.7679 12.0559 14.7422 12.0433C14.7231 12.0338 14.7064 12.0199 14.6937 12.0027C14.681 11.9855 14.6726 11.9655 14.6691 11.9444C14.529 11.9699 14.3912 12.0067 14.2571 12.0545C14.2721 12.1375 14.2486 12.1919 14.1914 12.2214C14.1666 12.2341 14.1404 12.2392 14.1113 12.2341C14.0895 12.2311 14.0688 12.2225 14.0513 12.2091C14.0338 12.1957 14.02 12.178 14.0114 12.1577C13.9313 12.1877 13.6763 12.3353 13.6425 12.3723C13.6772 12.4417 13.6693 12.5031 13.6214 12.5472C13.6079 12.5591 13.5922 12.5682 13.5751 12.5739C13.558 12.5797 13.5399 12.5819 13.5219 12.5805C13.504 12.5791 13.4865 12.5741 13.4705 12.5658C13.4545 12.5575 13.4403 12.5461 13.4288 12.5322C13.3206 12.6247 13.2199 12.7254 13.1274 12.8336Z" fill="#010088"/>
<path fill-rule="evenodd" clip-rule="evenodd" d="M16.4441 16.7939C16.4384 16.7878 16.4328 16.7836 16.4286 16.777C16.1561 16.3604 15.8828 15.9443 15.6088 15.5287C15.6027 15.517 15.5956 15.5053 15.59 15.4922C15.5262 15.3436 15.4639 15.195 15.3987 15.0469C15.3966 15.0392 15.3936 15.0318 15.3898 15.0248C15.3636 15.0347 15.3397 15.0459 15.3116 15.0567L15.3209 15.0806C15.3795 15.2245 15.4358 15.3689 15.4953 15.5128C15.5113 15.5512 15.5178 15.5915 15.5263 15.6319C15.5722 15.847 15.6153 16.0631 15.6617 16.2787L15.8202 17.0489C15.8209 17.0507 15.8212 17.0527 15.821 17.0547C15.8207 17.0567 15.82 17.0586 15.8187 17.0601L15.8122 17.0437C15.6837 16.6504 15.552 16.2576 15.4231 15.8644C15.3973 15.7875 15.3744 15.7115 15.3462 15.6347C15.3331 15.5962 15.3289 15.5569 15.3228 15.517C15.3064 15.4054 15.2923 15.2929 15.2741 15.1814C15.2717 15.1547 15.2675 15.1284 15.2638 15.1026C15.2626 15.0919 15.2609 15.0813 15.2586 15.0708C15.2305 15.0736 15.2047 15.0773 15.1766 15.0806C15.1766 15.0919 15.1775 15.1036 15.1784 15.1153C15.1948 15.2526 15.2089 15.3904 15.2286 15.5273C15.2389 15.6023 15.2337 15.6759 15.2295 15.7509C15.2267 15.8142 15.2225 15.8775 15.2197 15.9412C15.2112 16.0697 15.2047 16.1976 15.1958 16.3256L15.1817 16.59C15.1738 16.74 15.1644 16.8895 15.1564 17.0386C15.1527 17.0808 15.1517 17.1239 15.1475 17.1651L15.1363 17.0231L15.1217 16.7156L15.1048 16.4414C15.1002 16.3476 15.0941 16.2544 15.0889 16.1606C15.0847 16.0992 15.0823 16.0378 15.0786 15.9773C15.0734 15.8803 15.0673 15.7833 15.0627 15.6872C15.058 15.6359 15.0593 15.5844 15.0664 15.5334C15.0762 15.464 15.0837 15.3933 15.0922 15.3229C15.1016 15.2536 15.1095 15.1837 15.118 15.1153C15.1189 15.1045 15.1189 15.0933 15.1203 15.0806L15.0383 15.0698C15.0359 15.0886 15.0317 15.1069 15.0284 15.1256C15.009 15.2688 14.989 15.4119 14.9684 15.555C14.9628 15.6108 14.9408 15.6623 14.922 15.7144C14.7777 16.154 14.6328 16.5942 14.4866 17.0334C14.4833 17.0414 14.4819 17.0489 14.4758 17.0564C14.4758 17.0508 14.4758 17.0465 14.4781 17.0414C14.5386 16.7451 14.5995 16.4484 14.6623 16.1522C14.7027 15.9553 14.7444 15.7589 14.7842 15.5625L14.7955 15.5301C14.8559 15.3815 14.9141 15.2315 14.9759 15.0829C14.9781 15.0742 14.9812 15.0657 14.9853 15.0576C14.9595 15.0466 14.9336 15.0358 14.9075 15.0253C14.9042 15.0337 14.8991 15.0408 14.8963 15.0492C14.8316 15.1983 14.7683 15.3478 14.7036 15.4969C14.6996 15.5081 14.6945 15.5189 14.6886 15.5292C14.412 15.9482 14.1362 16.3677 13.8613 16.7878C13.8575 16.7941 13.8525 16.7997 13.8467 16.8042C13.8491 16.7967 13.8533 16.7906 13.8561 16.784L14.5339 15.4401C14.5397 15.4279 14.547 15.4165 14.5555 15.4059L14.8452 15.0173C14.8513 15.0108 14.855 15.0047 14.8606 14.9976C14.8367 14.9803 14.8175 14.9644 14.7936 14.9461C14.7884 14.9522 14.7837 14.9573 14.7795 14.9634C14.6783 15.0904 14.5784 15.2184 14.4795 15.345C14.4683 15.3567 14.458 15.3689 14.4453 15.3797C14.0759 15.7101 13.7066 16.0387 13.3358 16.3697C13.3283 16.3758 13.3208 16.3823 13.3114 16.3865C13.3156 16.3823 13.318 16.3772 13.3208 16.3739C13.625 16.034 13.9269 15.6947 14.2297 15.3548C14.247 15.3361 14.2644 15.3173 14.2808 15.2972C14.3155 15.2569 14.3544 15.2212 14.3966 15.1894L14.7331 14.9245C14.7406 14.9189 14.7463 14.9128 14.7547 14.9072C14.7381 14.8847 14.7209 14.8627 14.7031 14.8411C14.6956 14.8458 14.6895 14.8504 14.6825 14.8556C14.5536 14.9522 14.4242 15.0478 14.2953 15.1448C14.2809 15.1557 14.2655 15.1653 14.2494 15.1734C13.8092 15.3956 13.3667 15.6178 12.9256 15.84C12.9172 15.8437 12.9092 15.8484 12.8994 15.8484L12.9172 15.8358L13.7403 15.2967C13.8838 15.2025 14.0277 15.1083 14.1702 15.0136C14.1823 15.0065 14.195 15.0004 14.2058 14.9948C14.3553 14.9315 14.5044 14.8678 14.6525 14.804C14.6595 14.8012 14.6666 14.7984 14.675 14.7942L14.6436 14.7169C14.6347 14.7192 14.6291 14.7215 14.622 14.7239C14.4702 14.7844 14.3197 14.8458 14.1669 14.9058C14.1355 14.9175 14.1013 14.9231 14.068 14.9301L13.0438 15.1429C12.9148 15.1706 12.7836 15.1978 12.6542 15.2245C12.649 15.2257 12.6435 15.2251 12.6388 15.2226C12.6744 15.2114 12.71 15.1987 12.7452 15.187C13.1877 15.0412 13.6297 14.8959 14.0708 14.7492C14.1055 14.7375 14.1425 14.7342 14.1777 14.7286C14.3202 14.7089 14.4622 14.6883 14.6033 14.6681C14.6119 14.6666 14.6205 14.6647 14.6291 14.6625C14.6263 14.6353 14.622 14.6081 14.6197 14.58L14.5513 14.5875L14.2681 14.6217C14.2152 14.6287 14.1627 14.6344 14.1106 14.6409C14.098 14.6423 14.0858 14.6428 14.0736 14.6423L13.7755 14.625L13.5992 14.6151L13.2955 14.5973L12.8525 14.5729C12.7456 14.5673 12.6416 14.5603 12.5352 14.5528C12.552 14.5514 12.5708 14.5486 12.5891 14.5486L12.9523 14.5279L13.4323 14.5008L13.8298 14.4783L14.0792 14.4633C14.0891 14.4628 14.1008 14.4642 14.1106 14.4651L14.3966 14.4994L14.5991 14.5237H14.6197C14.622 14.497 14.6263 14.4717 14.6291 14.4426C14.6117 14.4389 14.592 14.4361 14.5747 14.4328C14.4495 14.4154 14.3253 14.3972 14.2002 14.3789C14.1742 14.3759 14.1482 14.3725 14.1223 14.3686C14.108 14.3666 14.0939 14.3633 14.0802 14.3587C13.7075 14.2364 13.3372 14.1131 12.965 13.9908C12.8614 13.9568 12.758 13.9224 12.6547 13.8876C12.6458 13.8853 12.6373 13.8813 12.6298 13.8759L12.695 13.889L13.4905 14.0545C13.7033 14.099 13.9194 14.1431 14.1322 14.1881C14.145 14.1909 14.1575 14.1949 14.1697 14.1998C14.3197 14.2589 14.4683 14.3198 14.6197 14.3798L14.6422 14.3887C14.6525 14.3629 14.6638 14.3381 14.675 14.3114C14.6674 14.3068 14.6594 14.3029 14.6511 14.2997C14.502 14.2369 14.3534 14.1726 14.2048 14.1084C14.1932 14.1035 14.1819 14.0977 14.1711 14.0911C13.7506 13.8159 13.332 13.5394 12.9111 13.2637C12.9055 13.2607 12.9011 13.2559 12.8984 13.2501L12.9153 13.2595C13.3344 13.4704 13.7539 13.6814 14.1739 13.8919C14.2433 13.9265 14.3108 13.9683 14.3727 14.0156C14.4748 14.0948 14.5789 14.1708 14.683 14.2486C14.69 14.2537 14.6961 14.2584 14.7036 14.2631L14.7552 14.1979L14.7369 14.182L14.3558 13.8825C14.3427 13.8722 14.3323 13.8614 14.3211 13.8501C13.9892 13.4784 13.6569 13.1062 13.3259 12.7345C13.3212 12.7307 13.3174 12.7257 13.3152 12.72C13.325 12.7209 13.3288 12.7275 13.333 12.7317C13.5341 12.9098 13.7333 13.0879 13.933 13.2661L14.4495 13.7264C14.4589 13.7348 14.4678 13.7451 14.4763 13.7545L14.772 14.1304C14.7795 14.1389 14.7852 14.1478 14.7936 14.159L14.8616 14.107C14.8573 14.1004 14.8517 14.0953 14.8484 14.0892C14.7519 13.9603 14.6558 13.8309 14.5583 13.7025C14.5482 13.6874 14.539 13.6717 14.5306 13.6556C14.3056 13.2126 14.0825 12.7678 13.8589 12.3244C13.8547 12.3159 13.8505 12.3094 13.8495 12.3004C13.8538 12.3051 13.858 12.3094 13.8608 12.3136L14.3398 13.0458L14.6787 13.5614C14.6905 13.5811 14.7036 13.6017 14.7111 13.6233C14.7744 13.7676 14.8353 13.9125 14.8967 14.0569C14.9009 14.0634 14.9037 14.0704 14.908 14.0789L14.9858 14.0465L14.9773 14.0269C14.9188 13.8806 14.8616 13.7344 14.802 13.589C14.7856 13.552 14.7795 13.5136 14.7716 13.4751C14.7205 13.2309 14.6712 12.9862 14.6202 12.7415C14.57 12.5062 14.5222 12.2728 14.473 12.0365C14.472 12.0351 14.473 12.0333 14.4748 12.0286L14.5161 12.1537C14.6633 12.5958 14.8091 13.0387 14.9534 13.4817C14.9656 13.5164 14.9698 13.5544 14.975 13.5904C14.9923 13.7133 15.0097 13.837 15.0294 13.9608C15.0327 13.9842 15.0341 14.0076 15.0388 14.0334L15.1203 14.0231V13.9922C15.1086 13.8942 15.0959 13.7958 15.0847 13.6983C15.0777 13.6411 15.0725 13.5853 15.0645 13.5295C15.0598 13.492 15.0598 13.4541 15.0645 13.4165C15.0678 13.3528 15.0725 13.2895 15.0753 13.2262L15.0983 12.8442C15.1025 12.7758 15.1039 12.7064 15.1081 12.6379C15.1142 12.5489 15.1189 12.4584 15.1241 12.3689C15.1283 12.3033 15.1316 12.2372 15.1344 12.172C15.1381 12.0947 15.1442 12.0178 15.1508 11.9409C15.1527 11.962 15.1536 11.9836 15.1545 12.0061C15.1611 12.1003 15.1658 12.1945 15.1714 12.2892L15.1958 12.7186L15.2103 12.9595C15.2178 13.0987 15.2244 13.2384 15.2323 13.3776C15.2347 13.3987 15.2356 13.4184 15.237 13.439C15.2431 13.4934 15.2323 13.5473 15.2277 13.6012L15.1977 13.8469C15.193 13.8933 15.1859 13.9397 15.1803 13.9865C15.1794 13.9978 15.1794 14.01 15.1761 14.0236C15.2052 14.0278 15.2314 14.0306 15.2605 14.0344C15.2647 14.0142 15.2666 13.9954 15.2698 13.9758C15.2923 13.8234 15.3139 13.6711 15.3355 13.5178C15.3373 13.5065 15.342 13.4948 15.3448 13.4831C15.4977 13.0247 15.6477 12.5658 15.7995 12.1064C15.807 12.0853 15.8127 12.0651 15.8244 12.045C15.8231 12.0557 15.8214 12.0663 15.8192 12.0769C15.7508 12.4087 15.6795 12.7397 15.6116 13.0706C15.5811 13.2258 15.5488 13.3814 15.5164 13.5365C15.5141 13.5494 15.51 13.5619 15.5042 13.5736L15.3233 14.0259C15.32 14.0325 15.3177 14.0395 15.3144 14.0479C15.3425 14.0587 15.3655 14.0695 15.3927 14.0803L15.4034 14.0578L15.5923 13.6139C15.5998 13.5989 15.6055 13.5844 15.6153 13.5722L16.4333 12.3244C16.4384 12.3178 16.4427 12.3112 16.4506 12.3065C16.4473 12.3131 16.445 12.3197 16.4408 12.3262L15.7681 13.6622C15.7611 13.6748 15.7541 13.6875 15.7456 13.6987C15.6481 13.8286 15.5502 13.9584 15.4541 14.0873C15.4494 14.0947 15.4442 14.1018 15.4386 14.1084L15.5052 14.1604C15.5104 14.1549 15.5153 14.1489 15.5197 14.1426C15.6191 14.0161 15.718 13.889 15.8187 13.7625C15.8299 13.7482 15.8423 13.7351 15.8558 13.7231C16.2261 13.3922 16.5969 13.0617 16.9677 12.7317C16.9737 12.7265 16.978 12.7214 16.9878 12.7186L16.9756 12.7336C16.8242 12.9047 16.6728 13.0748 16.5191 13.245C16.3363 13.4489 16.1558 13.6523 15.9744 13.8562C15.965 13.8665 15.9538 13.8754 15.9439 13.8839L15.5628 14.1834L15.5441 14.1984C15.5619 14.2209 15.5778 14.2425 15.5966 14.265L15.6167 14.25L16.0072 13.9575C16.0171 13.9504 16.0275 13.9438 16.0381 13.9378C16.4881 13.7119 16.9353 13.4869 17.3825 13.2609C17.39 13.2576 17.3961 13.2548 17.4041 13.2548C17.3834 13.2684 17.3642 13.2815 17.3436 13.2942C16.9391 13.56 16.5345 13.8258 16.1286 14.0915C16.1173 14.0981 16.107 14.1047 16.0948 14.1098C15.9453 14.1745 15.7944 14.2383 15.6462 14.3025L15.6223 14.3119C15.635 14.3381 15.6439 14.3629 15.6552 14.3892L15.6767 14.3822C15.8272 14.3226 15.9767 14.2603 16.1286 14.2026C16.1661 14.1876 16.2073 14.1811 16.2481 14.1726L16.9386 14.0292C17.1533 13.9851 17.3661 13.9401 17.5813 13.8956C17.6009 13.8914 17.6192 13.8872 17.6398 13.8834C17.645 13.8834 17.6497 13.8825 17.6572 13.8853L17.5916 13.9069C17.1336 14.0583 16.677 14.2092 16.2191 14.3587C16.1844 14.3709 16.1459 14.3742 16.1098 14.3798C16.0072 14.3953 15.9059 14.4089 15.8061 14.4234C15.7695 14.4286 15.7334 14.4342 15.6969 14.4389L15.6702 14.4436C15.673 14.4712 15.6772 14.497 15.6791 14.527L15.7498 14.5195L16.003 14.4895C16.0663 14.4815 16.1323 14.4726 16.1984 14.4665C16.228 14.4642 16.258 14.467 16.2884 14.4684C16.3527 14.4712 16.4169 14.4769 16.4839 14.4797L16.8627 14.5022C16.9189 14.5054 16.9752 14.5078 17.0333 14.5115L17.4195 14.5336C17.5109 14.5392 17.6052 14.5434 17.6961 14.549C17.7187 14.5503 17.7412 14.5524 17.7636 14.5551L17.6952 14.5608L17.4116 14.5762L17.0605 14.5969L16.7956 14.6109C16.6738 14.6184 16.5495 14.6254 16.4267 14.6334C16.3592 14.6362 16.2898 14.6428 16.2219 14.6433C16.183 14.6442 16.1422 14.6367 16.1042 14.6325C16.0209 14.6227 15.9376 14.6127 15.8544 14.6025L15.6945 14.5833H15.6791C15.6772 14.6104 15.673 14.6372 15.6702 14.6658C15.8354 14.6902 16.0007 14.7141 16.1661 14.7375C16.2148 14.7436 16.2575 14.7628 16.3034 14.7773L17.6366 15.2175C17.6452 15.2193 17.6534 15.223 17.6605 15.2283C17.6492 15.2264 17.6384 15.2245 17.6272 15.2236L16.4694 14.9822L16.1637 14.9184C16.1539 14.9156 16.1408 14.9119 16.13 14.9067C15.9795 14.8472 15.8286 14.7862 15.6772 14.7258L15.657 14.7187C15.6461 14.7444 15.6347 14.7699 15.6228 14.7951L15.6477 14.8069C15.7972 14.8706 15.9458 14.9339 16.0944 14.9981C16.1061 15.0033 16.1178 15.0094 16.13 15.0178L17.3778 15.8353C17.3839 15.84 17.3919 15.8456 17.397 15.8545C17.3909 15.8508 17.3839 15.8484 17.3788 15.8447L16.7286 15.5184C16.5017 15.4031 16.273 15.2887 16.0438 15.1734C16.0291 15.1662 16.0154 15.1572 16.003 15.1467C15.8741 15.0506 15.7438 14.954 15.6148 14.857C15.6091 14.8522 15.603 14.8478 15.5966 14.8439C15.5787 14.8654 15.5628 14.8865 15.5441 14.909L15.5619 14.9231C15.6875 15.0234 15.8155 15.1237 15.9416 15.2236C15.9559 15.2338 15.969 15.2458 15.9805 15.2592L16.9737 16.3706C16.9778 16.3762 16.981 16.3823 16.9831 16.3889C16.978 16.3833 16.9709 16.3795 16.9658 16.3753C16.5931 16.042 16.22 15.7106 15.8464 15.3778C15.8379 15.3703 15.8304 15.3618 15.8239 15.3525L15.5202 14.9653C15.5159 14.9592 15.5108 14.9536 15.5056 14.9475C15.4841 14.9653 15.463 14.9812 15.4414 15C15.4433 15.0056 15.4475 15.0117 15.4513 15.0173L15.7461 15.4101C15.7545 15.4216 15.762 15.4336 15.7686 15.4462C15.9922 15.8897 16.2153 16.334 16.4384 16.7779C16.4421 16.784 16.4445 16.7907 16.4455 16.7976H16.4441V16.7939Z" fill="#010088"/>
<path fill-rule="evenodd" clip-rule="evenodd" d="M16.4395 16.7939C16.4441 16.7986 16.447 16.8038 16.4507 16.808C16.4484 16.8089 16.4484 16.8104 16.4455 16.8108C16.4446 16.8043 16.4413 16.8 16.4404 16.7939H16.4395Z" fill="#010088"/>
</svg>
